<?xml version="1.0" encoding="utf-8"?>
<!-- Generator: Adobe Illustrator 28.2.0, SVG Export Plug-In . SVG Version: 6.00 Build 0)  -->
<svg version="1.1" id="Layer_1" xmlns="http://www.w3.org/2000/svg" xmlns:xlink="http://www.w3.org/1999/xlink" x="0px" y="0px"
	 viewBox="0 0 1080 1080" style="enable-background:new 0 0 1080 1080;" xml:space="preserve">
<style type="text/css">
	.st0{fill:#3F4240;}
	.st1{fill:#006747;}
	.st2{fill:#FFFFFF;}
	.st3{fill:#00AA4B;}
</style>
<g>
	<path class="st0" d="M383.31,478.62h-11.72v53.25h-18.52c-8.08,0-13.8-1.5-17.17-4.5c-3.2-2.8-4.8-7.41-4.8-13.84
		c0-5.34,1.01-10.21,3.03-14.62l-12.5,2.03c-1.53,4.21-2.29,8.85-2.29,13.93c0,8.54,2.41,14.93,7.22,19.16
		c5.31,4.7,13.74,7.05,25.31,7.05h31.45V478.62z"/>
	<path class="st0" d="M364.41,497.96h-5.02c-4.1,0-6.14-1.12-6.14-3.37c0-2.02,1.43-3.03,4.28-3.03c1.47,0,2.94,0.15,4.41,0.43
		l1.08-6.62c-2.08-0.29-3.82-0.43-5.23-0.43c-4.33,0-7.63,1.02-9.91,3.07c-1.96,1.79-2.94,4.07-2.94,6.84
		c0,1.73,0.56,2.88,1.69,3.46c-1.1-0.23-2.75-0.35-4.98-0.35v6.62h22.76V497.96z"/>
	<path class="st0" d="M410.83,541.44v-42.01h-11.68v42.66c0,4.56-0.85,7.82-2.55,9.78c-1.5,1.73-3.85,2.6-7.05,2.6
		c-2.34,0-4.73-0.35-7.18-1.04l-0.87,9.3c2.36,0.58,4.85,0.87,7.44,0.87C403.53,563.59,410.83,556.2,410.83,541.44z"/>
	<path class="st0" d="M471.22,554.37c0-1.7-0.61-3.14-1.82-4.33c-1.18-1.18-2.62-1.77-4.33-1.77c-1.67,0-3.1,0.59-4.28,1.77
		c-1.21,1.21-1.82,2.65-1.82,4.33c0,1.73,0.61,3.19,1.82,4.37c1.18,1.18,2.61,1.77,4.28,1.77c1.7,0,3.14-0.61,4.33-1.82
		C470.61,557.52,471.22,556.07,471.22,554.37z"/>
	<path class="st0" d="M445.44,541.09h50.18H497h26.95v-41.66h-11.68v32.45H497h-1.38h-5.54c0.23-2.28,0.35-4.67,0.35-7.18
		c0-8.68-2.15-15.1-6.45-19.25c-4.47-4.35-11.59-6.53-21.37-6.53c-3.4,0-7.18,0.27-11.33,0.82v9.13c3.49-0.49,6.88-0.74,10.17-0.74
		c6.23,0,10.73,1.43,13.5,4.28c2.6,2.71,3.89,6.95,3.89,12.72c0,2.13-0.14,4.38-0.43,6.75h-32.97h-1.34h-7.53v-53.25h-11.68v62.47
		h19.21H445.44z"/>
	<path class="st0" d="M503.15,548.36c-1.62,0-3,0.59-4.15,1.77c-1.12,1.18-1.69,2.6-1.69,4.24c0,1.7,0.56,3.13,1.69,4.28
		c1.12,1.15,2.51,1.73,4.15,1.73c1.67,0,3.09-0.59,4.24-1.77c1.12-1.15,1.69-2.57,1.69-4.24c0-1.67-0.56-3.1-1.69-4.28
		C506.23,548.94,504.82,548.36,503.15,548.36z"/>
	<path class="st0" d="M523.7,554.37c0-1.67-0.56-3.1-1.69-4.28c-1.12-1.15-2.51-1.73-4.15-1.73c-1.62,0-3,0.59-4.15,1.77
		c-1.12,1.18-1.69,2.6-1.69,4.24c0,1.7,0.56,3.13,1.69,4.28c1.12,1.15,2.51,1.73,4.15,1.73c1.61,0,3-0.59,4.15-1.77
		C523.13,557.43,523.7,556.02,523.7,554.37z"/>
	<rect x="540.13" y="478.62" class="st0" width="11.72" height="62.47"/>
	<path class="st0" d="M556.44,558.18h-5.41c-3.78,0-5.67-0.94-5.67-2.81c0-1.73,1.33-2.6,3.98-2.6c0.89,0,2.38,0.16,4.46,0.48
		l1.04-6.06c-1.24-0.35-2.98-0.52-5.23-0.52c-3.95,0-7.05,0.88-9.3,2.64c-1.99,1.56-2.98,3.52-2.98,5.88c0,1.47,0.5,2.58,1.51,3.33
		c-1.04-0.23-2.61-0.35-4.72-0.35v6.23h22.32V558.18z"/>
	<polygon class="st0" points="323.08,638.4 350.77,638.4 350.77,629.97 332.88,629.97 332.88,616.24 349.85,616.24 349.85,608.25 
		332.88,608.25 332.88,595.73 350.77,595.73 350.77,587.52 323.08,587.52 	"/>
	<path class="st0" d="M376.85,623.79c0,4.66-1.87,6.99-5.6,6.99c-1.77,0-3.33-0.25-4.68-0.74v8.43c2.31,0.39,4.42,0.59,6.33,0.59
		c9.15,0,13.73-4.97,13.73-14.91v-36.63h-9.79V623.79z"/>
	<path class="st0" d="M418.87,587.52l-17.56,50.88h9.87l3.57-10.42h19.29l3.46,10.42h10.86l-17.93-50.88H418.87z M417.07,620.22
		l5.19-15.13c0.52-1.67,1.18-4.01,1.99-7.03h0.07c0.47,2.01,1.14,4.36,2.02,7.03l5.19,15.13H417.07z"/>
	<path class="st0" d="M485.89,615.73c3.63-0.64,6.6-2.21,8.91-4.71c2.41-2.63,3.61-5.78,3.61-9.46c0-9.57-6.16-14.36-18.48-14.36
		c-6.19,0-11.06,0.11-14.62,0.33v50.88h9.79v-21.02h0.85l13.73,21.02h12.11l-11.82-17.12C489.17,620.08,487.8,618.23,485.89,615.73z
		 M478.64,610.28c-1.45,0-2.63-0.05-3.53-0.15v-14.69c0.98-0.17,2.27-0.26,3.87-0.26c6.14,0,9.2,2.44,9.2,7.33
		c0,2.38-0.86,4.27-2.58,5.67C483.9,609.58,481.58,610.28,478.64,610.28z"/>
	<polygon class="st0" points="539.25,612.08 557.95,587.52 545.91,587.52 529.46,610.57 529.46,587.52 519.66,587.52 519.66,638.4 
		529.46,638.4 529.46,613.96 545.84,638.4 558.72,638.4 	"/>
</g>
<path class="st3" d="M665.1,520.02V465.6l-16.01,13.31v145.81h-47.76l-16.92,14.13h123.47V520.02H665.1z M692.62,624.65H665.1
	v-90.52h27.52V624.65z"/>
<g>
	<polygon class="st1" points="601.82,538.99 601.82,559.58 665.1,506.96 665.1,527.49 601.82,580.34 601.82,603.54 665.1,550.92 
		665.1,571.45 649.09,584.82 601.33,624.72 584.42,638.85 584.42,532.69 665.1,465.6 665.1,486.12 	"/>
</g>
</svg>
