<?xml version="1.0" encoding="utf-8"?>
<!-- Generator: Adobe Illustrator 28.2.0, SVG Export Plug-In . SVG Version: 6.00 Build 0)  -->
<svg version="1.1" id="Layer_1" xmlns="http://www.w3.org/2000/svg" xmlns:xlink="http://www.w3.org/1999/xlink" x="0px" y="0px"
	 viewBox="0 0 1080 1080" style="enable-background:new 0 0 1080 1080;" xml:space="preserve">
<style type="text/css">
	.st0{fill:#3F4240;}
	.st1{fill:#006747;}
	.st2{fill:#FFFFFF;}
	.st3{fill:#00AA4B;}
</style>
<rect x="-0.47" y="-0.62" class="st1" width="1083.02" height="1082.55"/>
<g>
	<g>
		<path class="st2" d="M361.43,550.74c-11.38,0-19.68-2.31-24.9-6.94c-4.74-4.17-7.11-10.46-7.11-18.86c0-4.99,0.75-9.56,2.26-13.71
			l12.3-2c-1.99,4.34-2.98,9.14-2.98,14.39c0,6.33,1.57,10.87,4.72,13.62c3.32,2.95,8.95,4.43,16.9,4.43h18.22v-52.4h11.53v61.46
			H361.43z M351.38,508.3c2.18,0,3.82,0.11,4.9,0.34c-1.11-0.57-1.66-1.7-1.66-3.4c0-2.72,0.96-4.97,2.89-6.73
			c2.24-2.01,5.49-3.02,9.75-3.02c1.39,0,3.11,0.14,5.15,0.43l-1.06,6.51c-1.45-0.28-2.89-0.43-4.34-0.43
			c-2.81,0-4.21,0.99-4.21,2.98c0,2.21,2.01,3.32,6.04,3.32h4.94v6.51h-22.39V508.3z"/>
		<path class="st2" d="M390.58,572.02l0.85-9.15c2.41,0.68,4.77,1.02,7.07,1.02c3.15,0,5.46-0.85,6.94-2.55
			c1.67-1.93,2.51-5.14,2.51-9.62v-41.97h11.49v41.33c0,14.53-7.18,21.79-21.54,21.79C395.35,572.87,392.91,572.58,390.58,572.02z"
			/>
		<path class="st2" d="M433.27,489.27h11.49v52.4h8.72v9.07h-20.22V489.27z"/>
		<path class="st2" d="M452.17,541.67h33.75c0.28-2.33,0.43-4.54,0.43-6.64c0-5.67-1.28-9.85-3.83-12.51
			c-2.72-2.81-7.15-4.21-13.28-4.21c-3.23,0-6.57,0.24-10,0.72v-8.98c4.09-0.54,7.8-0.81,11.15-0.81c9.62,0,16.63,2.14,21.03,6.43
			c4.23,4.09,6.34,10.4,6.34,18.94c0,2.47-0.11,4.82-0.34,7.07h6.81v9.07h-52.05V541.67z M468.6,568.1c-1.19-1.16-1.79-2.6-1.79-4.3
			c0-1.65,0.6-3.06,1.79-4.26c1.16-1.16,2.57-1.75,4.21-1.75c1.67,0,3.09,0.58,4.26,1.75c1.19,1.16,1.79,2.58,1.79,4.26
			c0,1.67-0.6,3.09-1.79,4.26c-1.16,1.19-2.58,1.79-4.26,1.79C471.17,569.85,469.76,569.26,468.6,568.1z"/>
		<path class="st2" d="M502.86,541.67h16.39v-31.92h11.49v40.99h-27.88V541.67z M514.44,567.97c-1.13,1.16-2.53,1.75-4.17,1.75
			c-1.62,0-2.98-0.57-4.09-1.7c-1.11-1.13-1.66-2.54-1.66-4.21c0-1.62,0.55-3.01,1.66-4.17c1.13-1.16,2.5-1.75,4.09-1.75
			c1.65,0,3.04,0.57,4.17,1.7c1.11,1.16,1.66,2.57,1.66,4.21S515.55,566.84,514.44,567.97z M528.83,567.97
			c-1.14,1.16-2.5,1.75-4.09,1.75c-1.62,0-2.98-0.57-4.09-1.7c-1.11-1.13-1.66-2.54-1.66-4.21c0-1.62,0.55-3.01,1.66-4.17
			c1.13-1.16,2.5-1.75,4.09-1.75c1.62,0,2.98,0.57,4.09,1.7c1.11,1.16,1.66,2.57,1.66,4.21
			C530.49,565.42,529.93,566.81,528.83,567.97z"/>
		<path class="st2" d="M540.75,567.55c2.07,0,3.62,0.11,4.64,0.34c-0.99-0.74-1.49-1.83-1.49-3.28c0-2.33,0.98-4.26,2.94-5.79
			c2.21-1.73,5.26-2.6,9.15-2.6c2.21,0,3.93,0.17,5.15,0.51l-1.02,5.96c-2.04-0.31-3.5-0.47-4.38-0.47c-2.61,0-3.92,0.85-3.92,2.55
			c0,1.84,1.86,2.77,5.58,2.77h5.32v6.13h-21.96V567.55z M546.66,489.27h11.54v61.46h-11.54V489.27z"/>
	</g>
</g>
<g>
	<g>
		<path class="st2" d="M333.11,646.48v-50.06h27.24v8.08h-17.6v12.32h16.7v7.86h-16.7v13.51h17.6v8.29H333.11z"/>
		<path class="st2" d="M395.64,632.46c0,9.78-4.5,14.67-13.51,14.67c-1.88,0-3.96-0.19-6.23-0.58v-8.29
			c1.33,0.48,2.86,0.72,4.6,0.72c3.67,0,5.5-2.29,5.5-6.88v-35.68h9.63V632.46z"/>
		<path class="st2" d="M445.68,646.48l-3.4-10.25h-18.98l-3.51,10.25h-9.71l17.28-50.06h11.37l17.64,50.06H445.68z M434.71,613.7
			c-0.87-2.63-1.53-4.94-1.99-6.92h-0.07c-0.8,2.97-1.45,5.28-1.96,6.92l-5.11,14.89h14.24L434.71,613.7z"/>
		<path class="st2" d="M497.02,646.48l-13.51-20.68h-0.83v20.68h-9.63v-50.06c3.5-0.22,8.29-0.33,14.38-0.33
			c12.12,0,18.18,4.71,18.18,14.13c0,3.62-1.18,6.73-3.55,9.31c-2.27,2.46-5.19,4.01-8.77,4.64c1.88,2.46,3.22,4.29,4.02,5.47
			l11.63,16.84H497.02z M486.48,603.96c-1.57,0-2.84,0.08-3.8,0.25v14.45c0.89,0.1,2.05,0.15,3.48,0.15c2.9,0,5.18-0.69,6.85-2.06
			c1.69-1.38,2.54-3.24,2.54-5.58C495.53,606.36,492.52,603.96,486.48,603.96z"/>
		<path class="st2" d="M552.27,646.48l-16.12-24.05v24.05h-9.63v-50.06h9.63v22.67l16.19-22.67h11.84l-18.4,24.16l19.16,25.9H552.27
			z"/>
	</g>
</g>
<path class="st3" d="M682.58,520.02V465.6l-16.01,13.31v145.81h-47.76l-16.92,14.13h123.47V520.02H682.58z M710.1,624.65h-27.52
	v-90.52h27.52V624.65z"/>
<g>
	<polygon class="st3" points="619.3,538.99 619.3,559.58 682.57,506.96 682.57,527.49 619.3,580.34 619.3,603.54 682.57,550.92 
		682.57,571.45 666.57,584.82 618.81,624.72 601.89,638.85 601.89,532.69 682.57,465.6 682.57,486.12 	"/>
</g>
</svg>
