<svg xmlns="http://www.w3.org/2000/svg" width="42.723" height="42.723" viewBox="0 0 42.723 42.723">
  <g id="Group_17" data-name="Group 17" transform="translate(-971.887 -57.638)">
    <g id="Group_15" data-name="Group 15" transform="translate(73.849 0.276)">
      <path id="Circle" d="M0,20.862A20.862,20.862,0,1,1,20.862,41.723,20.862,20.862,0,0,1,0,20.862Z" transform="translate(898.538 57.863)" fill="#fff" stroke="#c5c5c5" stroke-miterlimit="10" stroke-width="1"/>
    </g>
    <g id="EDUCATION_OUTLINE" data-name="EDUCATION OUTLINE" transform="translate(981.807 67.558)">
      <path id="Path_35" data-name="Path 35" d="M258.378,191.68a1.509,1.509,0,0,0-1.419,1l-4.327,11.951a1.022,1.022,0,1,0,1.927.679l.581-1.689.053-.154h6.352l.053.154.581,1.689a1.021,1.021,0,0,0,.965.689h0a1.021,1.021,0,0,0,.961-1.368l-4.31-11.952a1.509,1.509,0,0,0-1.42-1Zm.076,2.916.151.433,2.186,6.268.105.3h-5.058l.105-.3,2.186-6.268.152-.433a.089.089,0,0,1,.171,0Z" transform="translate(-241.284 -183.113)" fill="#00aa4b"/>
      <path id="Path_36" data-name="Path 36" d="M.866,3.849H12.985l-.147.322A21.045,21.045,0,0,1,8.945,9.952l-.166.175-.166-.175a20.947,20.947,0,0,1-2.679-3.5.872.872,0,0,0-.743-.42h0a.868.868,0,0,0-.742,1.319,22.627,22.627,0,0,0,2.905,3.79l.166.175-.186.156c-.086.072-.163.137-.235.2L2.8,15.191a.869.869,0,0,0,1.1,1.344l4.305-3.526c.129-.105.268-.223.425-.358l.15-.13.15.13c.143.123.286.244.426.358l1.2.986a.868.868,0,1,0,1.1-1.343l-1.2-.979c-.065-.053-.129-.108-.192-.16l-.045-.036-.184-.156.166-.175a22.8,22.8,0,0,0,4.6-7.151l.058-.142h1.823a.866.866,0,0,0,0-1.732H9.65V.867A.866.866,0,0,0,8.784,0h-.01a.866.866,0,0,0-.866.866V2.118H.866a.866.866,0,1,0,0,1.731Z" transform="translate(0 0)" fill="#4d5f65"/>
    </g>
    <g id="EDUCATION_OUTLINE-2" data-name="EDUCATION OUTLINE" transform="translate(981.807 67.558)">
      <path id="Path_35-2" data-name="Path 35" d="M258.378,191.68a1.509,1.509,0,0,0-1.419,1l-4.327,11.951a1.022,1.022,0,1,0,1.927.679l.581-1.689.053-.154h6.352l.053.154.581,1.689a1.021,1.021,0,0,0,.965.689h0a1.021,1.021,0,0,0,.961-1.368l-4.31-11.952a1.509,1.509,0,0,0-1.42-1Zm.076,2.916.151.433,2.186,6.268.105.3h-5.058l.105-.3,2.186-6.268.152-.433a.089.089,0,0,1,.171,0Z" transform="translate(-241.284 -183.113)" fill="#00aa4b"/>
      <path id="Path_36-2" data-name="Path 36" d="M.866,3.849H12.985l-.147.322A21.045,21.045,0,0,1,8.945,9.952l-.166.175-.166-.175a20.947,20.947,0,0,1-2.679-3.5.872.872,0,0,0-.743-.42h0a.868.868,0,0,0-.742,1.319,22.627,22.627,0,0,0,2.905,3.79l.166.175-.186.156c-.086.072-.163.137-.235.2L2.8,15.191a.869.869,0,0,0,1.1,1.344l4.305-3.526c.129-.105.268-.223.425-.358l.15-.13.15.13c.143.123.286.244.426.358l1.2.986a.868.868,0,1,0,1.1-1.343l-1.2-.979c-.065-.053-.129-.108-.192-.16l-.045-.036-.184-.156.166-.175a22.8,22.8,0,0,0,4.6-7.151l.058-.142h1.823a.866.866,0,0,0,0-1.732H9.65V.867A.866.866,0,0,0,8.784,0h-.01a.866.866,0,0,0-.866.866V2.118H.866a.866.866,0,1,0,0,1.731Z" transform="translate(0 0)" fill="#4d5f65"/>
    </g>
  </g>
</svg>
