<svg xmlns="http://www.w3.org/2000/svg" width="88.085" height="100.694" viewBox="0 0 88.085 100.694">
  <g id="_10223846" data-name="10223846" transform="translate(0 0.155)">
    <g id="Background_Simple" transform="translate(0 4.165)">
      <path id="Path_519" data-name="Path 519" d="M19.3,37.3a40.467,40.467,0,0,0-3.724,1.919c-13.842,8.235-22.2,31.55-8.806,43.869,3.192,2.935,7.157,4.084,10.877,6.13,8.46,4.651,13.28,12.86,21.068,18.217,6.038,4.153,14.016,3.983,20.82,2.112a27.63,27.63,0,0,0,16.83-12.4c4.664-7.233,3.807-15.225,2.649-23.315a43.7,43.7,0,0,1-.631-11.067c.527-4.6,2.034-9.109,2.871-13.663.869-4.738,1.243-9.675,0-14.33-3.97-14.9-25.429-19.334-38.077-13.83-4.476,1.949-8.017,5.428-11.595,8.645A45.56,45.56,0,0,1,19.3,37.3Z" transform="translate(0.001 -18.667)" fill="#92e3a9"/>
      <path id="Path_520" data-name="Path 520" d="M19.3,37.3a40.467,40.467,0,0,0-3.724,1.919c-13.842,8.235-22.2,31.55-8.806,43.869,3.192,2.935,7.157,4.084,10.877,6.13,8.46,4.651,13.28,12.86,21.068,18.217,6.038,4.153,14.016,3.983,20.82,2.112a27.63,27.63,0,0,0,16.83-12.4c4.664-7.233,3.807-15.225,2.649-23.315a43.7,43.7,0,0,1-.631-11.067c.527-4.6,2.034-9.109,2.871-13.663.869-4.738,1.243-9.675,0-14.33-3.97-14.9-25.429-19.334-38.077-13.83-4.476,1.949-8.017,5.428-11.595,8.645A45.56,45.56,0,0,1,19.3,37.3Z" transform="translate(0.001 -18.667)" fill="#fff" opacity="0.7"/>
    </g>
    <g id="Character" transform="translate(7.911 0)">
      <path id="Path_521" data-name="Path 521" d="M158.3,403.769a8.783,8.783,0,0,1-1.475,2.412c-.67.537-1.674,2.412-1.273,3.149s2.346,1,3.284.871a4.071,4.071,0,0,0,2.681-1.273c.47-.736.537-1.339,1.14-1.743s1.809-.736,1.942-1.408a6.9,6.9,0,0,0-.335-2.211s-2.545-1.608-3.284-1.608-2.545,1-2.612,1.408l-.066.4Z" transform="translate(-127.72 -309.897)" fill="#fff" stroke="#000" stroke-linecap="round" stroke-linejoin="round" stroke-width="0.3"/>
      <path id="Path_522" data-name="Path 522" d="M159.173,419.852a4.737,4.737,0,0,1-3.637-.677,1.374,1.374,0,0,0,.018.945c.4.736,2.346,1,3.284.871a4.071,4.071,0,0,0,2.681-1.273c.47-.736.537-1.339,1.14-1.743s1.809-.736,1.942-1.408a2.2,2.2,0,0,0,.007-.608,18.039,18.039,0,0,0-2.284,1.479c-1.071.871-.67,1.942-3.149,2.412Z" transform="translate(-127.723 -320.687)" fill="#a6a6a6" stroke="#000" stroke-linecap="round" stroke-linejoin="round" stroke-width="0.3"/>
      <path id="Path_523" data-name="Path 523" d="M155.555,219.977l1.608,19.9a27,27,0,0,0-.268,5.359c.268,1.475,2.009,15.007,2.009,15.007l-.67.6.133,2.412a24.342,24.342,0,0,1,2.545-1.071c.268,0,3.284,1.408,3.417.871a39.355,39.355,0,0,0,.066-6.366c-.2-1.206-.8-5.9-.8-5.9l1-27.2.335-3.954-9.379.335Z" transform="translate(-127.789 -169.387)" fill="#7a8499" stroke="#000" stroke-linecap="round" stroke-linejoin="round" stroke-width="0.3"/>
      <path id="Path_524" data-name="Path 524" d="M205.439,403.769a8.782,8.782,0,0,0,1.475,2.412c.67.537,1.674,2.412,1.273,3.149s-2.346,1-3.284.871a4.072,4.072,0,0,1-2.681-1.273c-.47-.736-.537-1.339-1.14-1.743s-1.809-.736-1.942-1.408a6.891,6.891,0,0,1,.335-2.211s2.545-1.608,3.284-1.608,2.546,1,2.612,1.408l.067.4Z" transform="translate(-161.365 -309.897)" fill="#fff" stroke="#000" stroke-linecap="round" stroke-linejoin="round" stroke-width="0.3"/>
      <path id="Path_525" data-name="Path 525" d="M204.567,419.852a4.737,4.737,0,0,0,3.637-.677,1.374,1.374,0,0,1-.018.945c-.4.736-2.346,1-3.284.871a4.071,4.071,0,0,1-2.681-1.273c-.47-.736-.537-1.339-1.14-1.743s-1.809-.736-1.942-1.408a2.2,2.2,0,0,1-.007-.608,18.039,18.039,0,0,1,2.284,1.479c1.071.871.67,1.942,3.149,2.412Z" transform="translate(-161.364 -320.687)" fill="#a6a6a6" stroke="#000" stroke-linecap="round" stroke-linejoin="round" stroke-width="0.3"/>
      <path id="Path_526" data-name="Path 526" d="M206.948,214.462l-1.1,21.421a27,27,0,0,1,.268,5.359c-.268,1.475-2.009,15.007-2.009,15.007l.67.6-.133,2.412a24.341,24.341,0,0,0-2.545-1.071c-.268,0-3.284,1.408-3.417.871a39.353,39.353,0,0,1-.066-6.366c.2-1.206.8-5.9.8-5.9l-1-27.2-.335-3.954,8.872-1.188Z" transform="translate(-160.566 -165.395)" fill="#7a8499" stroke="#000" stroke-linecap="round" stroke-linejoin="round" stroke-width="0.3"/>
      <path id="Path_527" data-name="Path 527" d="M148.077,67.419l-7.517,4.763,3.6,20.962-.748,9.712a18.792,18.792,0,0,0,3.6,1.307,23.566,23.566,0,0,0,5.508.608l.328-1.167.328,1.213a15.741,15.741,0,0,0,5.417-.748,14.887,14.887,0,0,0,4.389-3.174l-1.541-11.3L163.3,69.288l-7.423-2.568-7.8.7Z" transform="translate(-116.237 -51.535)" fill="#92e3a9" stroke="#000" stroke-linecap="round" stroke-linejoin="round" stroke-width="0.3"/>
      <line id="Line_83" data-name="Line 83" x1="0.099" y1="8.664" transform="translate(36.324 22.562)" fill="none" stroke="#000" stroke-linecap="round" stroke-linejoin="round" stroke-width="0.3"/>
      <line id="Line_84" data-name="Line 84" x1="0.193" y1="17.036" transform="translate(36.431 32.088)" fill="none" stroke="#000" stroke-linecap="round" stroke-linejoin="round" stroke-width="0.3"/>
      <line id="Line_85" data-name="Line 85" x1="0.014" y1="1.229" transform="translate(36.635 50.046)" fill="none" stroke="#000" stroke-linecap="round" stroke-linejoin="round" stroke-width="0.3"/>
      <path id="Path_528" data-name="Path 528" d="M175.97,203.31a10.947,10.947,0,0,0,1.137.954" transform="translate(-143.527 -156.802)" fill="none" stroke="#000" stroke-linecap="round" stroke-linejoin="round" stroke-width="0.3"/>
      <path id="Path_529" data-name="Path 529" d="M160.82,187.09s1.424,1.69,2.85,3.114" transform="translate(-131.851 -144.302)" fill="none" stroke="#000" stroke-linecap="round" stroke-linejoin="round" stroke-width="0.3"/>
      <line id="Line_86" data-name="Line 86" x2="0.984" y2="0.924" transform="translate(28.478 43.71)" fill="none" stroke="#000" stroke-linecap="round" stroke-linejoin="round" stroke-width="0.3"/>
      <path id="Path_530" data-name="Path 530" d="M174.4,96.71a4.421,4.421,0,0,0,.516,1.046" transform="translate(-142.317 -74.648)" fill="none" stroke="#000" stroke-linecap="round" stroke-linejoin="round" stroke-width="0.3"/>
      <path id="Path_531" data-name="Path 531" d="M170.48,84.38s.282,1.046.626,2.066" transform="translate(-139.296 -65.145)" fill="none" stroke="#000" stroke-linecap="round" stroke-linejoin="round" stroke-width="0.3"/>
      <path id="Path_532" data-name="Path 532" d="M168.212,59.54s-1.02.032-1.119.461-.855,1.812-1.053,2.337-.757,2.273-.56,2.14,1.91-1.514,1.91-1.514a4.89,4.89,0,0,0,.658,1.316c.229.131,3.669,2.2,3.669,2.2s2.19-2.337,2.257-2.5.3-1.514.3-1.514c.181-.234,2.146,1.757,2.075,1.548-.144-.415-.988-3.72-1.186-4.116a2.763,2.763,0,0,0-1.844-1.252c-.725,0-5.1.89-5.1.89Z" transform="translate(-135.411 -45.316)" fill="#92e3a9" stroke="#000" stroke-linecap="round" stroke-linejoin="round" stroke-width="0.3"/>
      <path id="Path_533" data-name="Path 533" d="M176.177,53.183l-.257,3.7a15.829,15.829,0,0,0,1.708,2.564l2.165,2.165s2.192-4.444,2.307-4.9a3.764,3.764,0,0,0,.115-.826l-.91-3.561-5.128.855Z" transform="translate(-143.488 -40.445)" fill="#c9c9c9" stroke="#000" stroke-linecap="round" stroke-linejoin="round" stroke-width="0.3"/>
      <path id="Path_534" data-name="Path 534" d="M178.482,55.648l-2.561,2.58.284-4.158Z" transform="translate(-143.488 -41.786)" fill="#263238" stroke="#000" stroke-linecap="round" stroke-linejoin="round" stroke-width="0.3"/>
      <path id="Path_535" data-name="Path 535" d="M165.847,15.424a31.1,31.1,0,0,0,1.261,4.229c.406.651,2.738,2.594,3.919,2.268a4.889,4.889,0,0,0,2.832-3.447,36.054,36.054,0,0,0-.2-4.513,14.721,14.721,0,0,0-.488-2.887,2.248,2.248,0,0,0-1.424-1.424c-.69-.284-3.13.69-4.107,1.383s-2.073,1.626-2.2,2.156a7.859,7.859,0,0,0,.406,2.236Z" transform="translate(-135.397 -7.513)" fill="#c9c9c9" stroke="#000" stroke-linecap="round" stroke-linejoin="round" stroke-width="0.3"/>
      <path id="Path_536" data-name="Path 536" d="M162.4,21.161s-.53.936-.367,1.3,1.195,2,1.179,1.667c-.041-.894-.163-1.3-.163-1.546s.61-1.22.53-1.546-.977,0-1.179.122Z" transform="translate(-132.764 -16.22)" fill="#263238" stroke="#000" stroke-linecap="round" stroke-linejoin="round" stroke-width="0.3"/>
      <path id="Path_537" data-name="Path 537" d="M196.54,11.933a15.837,15.837,0,0,1,.651,1.993c.163.773.2,1.91.447,1.789a6.549,6.549,0,0,0,.651-2.6,1.183,1.183,0,0,0-1.14-1.22c-.61.041-.447-.08-.61.041Z" transform="translate(-159.379 -9.269)" fill="#263238" stroke="#000" stroke-linecap="round" stroke-linejoin="round" stroke-width="0.3"/>
      <path id="Path_538" data-name="Path 538" d="M167.207,2.151S165.093.28,165.01.525a.461.461,0,0,0,.041.406S162.937.28,162.043.606a8.166,8.166,0,0,0-2.6,2.6c.041.163.69,0,.69,0s-1.708,1.587-1.261,2.114a1.862,1.862,0,0,0,2.114.284c.773-.326,4.066-2.562,4.921-2.562s1.463.367,1.546.122S167.776,2.679,167.207,2.151Z" transform="translate(-130.29 -0.503)" fill="#263238" stroke="#000" stroke-linecap="round" stroke-linejoin="round" stroke-width="0.3"/>
      <path id="Path_539" data-name="Path 539" d="M176.766,31.582c.053.287-.05.546-.227.578s-.362-.174-.415-.463.05-.546.227-.578S176.713,31.293,176.766,31.582Z" transform="translate(-143.634 -24.096)" fill="#263238"/>
      <path id="Path_540" data-name="Path 540" d="M191.532,29.009c.03.291-.092.541-.271.56s-.349-.2-.376-.493.092-.541.271-.56S191.5,28.718,191.532,29.009Z" transform="translate(-155.018 -22.092)" fill="#263238"/>
      <path id="Path_541" data-name="Path 541" d="M180.312,37.276s-.2.53.041.651,1.1.447,1.383.243.936-.569.936-.773-.326-.447-.326-.447" transform="translate(-146.812 -28.592)" fill="none" stroke="#000" stroke-linecap="round" stroke-linejoin="round" stroke-width="0.3"/>
      <path id="Path_542" data-name="Path 542" d="M179.692,45.766a5.589,5.589,0,0,0,3.119-.456s-.557,1.422-1.431,1.541-1.69-1.085-1.69-1.085Z" transform="translate(-146.394 -35.035)" fill="#fff" stroke="#000" stroke-linecap="round" stroke-linejoin="round" stroke-width="0.3"/>
      <path id="Path_543" data-name="Path 543" d="M171.78,25.6l.378.2a1.57,1.57,0,0,1,.975-.6c.656-.119.894-.06.8-.259s-.438-.5-1.172-.218a1.727,1.727,0,0,0-.975.874Z" transform="translate(-140.297 -19.084)" fill="#263238" stroke="#000" stroke-linecap="round" stroke-linejoin="round" stroke-width="0.3"/>
      <path id="Path_544" data-name="Path 544" d="M188.763,23.037l-.314.289A1.567,1.567,0,0,0,187.355,23c-.665.053-.881.172-.835-.046s.3-.592,1.078-.511a1.726,1.726,0,0,1,1.165.6Z" transform="translate(-151.653 -17.403)" fill="#263238" stroke="#000" stroke-linecap="round" stroke-linejoin="round" stroke-width="0.3"/>
      <path id="Path_545" data-name="Path 545" d="M164.584,35s-.952.014-.782.869,1.367,1.367,1.367,1.367Z" transform="translate(-134.133 -27.089)" fill="#c9c9c9" stroke="#000" stroke-linecap="round" stroke-linejoin="round" stroke-width="0.3"/>
      <path id="Path_546" data-name="Path 546" d="M201.33,27.779s.727-.67,1.037.195a2.3,2.3,0,0,1-.768,2.506l-.268-2.7Z" transform="translate(-163.071 -21.333)" fill="#c9c9c9" stroke="#000" stroke-linecap="round" stroke-linejoin="round" stroke-width="0.3"/>
      <path id="Path_547" data-name="Path 547" d="M53.092,116.734,44.1,113.008a9.127,9.127,0,0,0-1.337-1.58c-.406-.243-1.5-.486-1.782-.688s-.527-.851-1.135-.771-.608.445-.323.688,1.3.892,1.3.892l-3.4-1.014s-2.8-1.337-2.917-.809,2.917,2.591,4.5,3.483a21.007,21.007,0,0,0,3.928,1.539s7.9,5.71,8.707,6.157,1.9.729,1.984.445a13.2,13.2,0,0,0-.527-4.619Z" transform="translate(-34.495 -84.584)" fill="#c9c9c9" stroke="#000" stroke-linecap="round" stroke-linejoin="round" stroke-width="0.3"/>
      <path id="Path_548" data-name="Path 548" d="M47.266,115.2a30.349,30.349,0,0,1-2.8-2.594c-.092-.3.271-.452.693-.271a12.207,12.207,0,0,1,1.75,1.6,14.017,14.017,0,0,1,2.864.392,7.425,7.425,0,0,1,.9,1.417" transform="translate(-42.165 -86.629)" fill="#c9c9c9" stroke="#000" stroke-linecap="round" stroke-linejoin="round" stroke-width="0.3"/>
      <path id="Path_549" data-name="Path 549" d="M38.844,110.81s-.518-.142-.429.268,3.607,2.8,3.607,2.8" transform="translate(-37.508 -85.496)" fill="none" stroke="#000" stroke-linecap="round" stroke-linejoin="round" stroke-width="0.3"/>
      <path id="Path_550" data-name="Path 550" d="M36.147,109.88s-.66.108.287,1.018" transform="translate(-35.596 -84.798)" fill="none" stroke="#000" stroke-linecap="round" stroke-linejoin="round" stroke-width="0.3"/>
      <path id="Path_551" data-name="Path 551" d="M125.663,90.54l-3.3,9.76s-.527-.041-.608.163-.527,1.215-.527,1.215l1.135,5.994a2.383,2.383,0,0,0,1.174-.486c.445-.406,3.97-5.751,3.97-5.751Z" transform="translate(-101.34 -69.893)" fill="#92e3a9" stroke="#000" stroke-linecap="round" stroke-linejoin="round" stroke-width="0.3"/>
      <line id="Line_87" data-name="Line 87" x1="0.346" y1="0.729" transform="translate(23.942 26.844)" fill="none" stroke="#000" stroke-linecap="round" stroke-linejoin="round" stroke-width="0.3"/>
      <line id="Line_88" data-name="Line 88" x1="1.495" y1="3.151" transform="translate(24.676 28.392)" fill="none" stroke="#000" stroke-linecap="round" stroke-linejoin="round" stroke-width="0.3"/>
      <line id="Line_89" data-name="Line 89" x1="1.539" y1="1.174" transform="translate(23.335 29.153)" fill="none" stroke="#000" stroke-linecap="round" stroke-linejoin="round" stroke-width="0.3"/>
      <line id="Line_90" data-name="Line 90" x2="0.66" y2="0.014" transform="translate(22.635 30.476)" fill="none" stroke="#000" stroke-linecap="round" stroke-linejoin="round" stroke-width="0.3"/>
      <line id="Line_91" data-name="Line 91" x2="0.773" y2="0.016" transform="translate(21.31 30.449)" fill="none" stroke="#000" stroke-linecap="round" stroke-linejoin="round" stroke-width="0.3"/>
      <path id="Path_552" data-name="Path 552" d="M116.507,140.374s-.851-1.094-1.174-1.094-1.378,0-1.337.122.122,5.832.406,5.994a8.8,8.8,0,0,0,2.876.243,2.907,2.907,0,0,0,.445-2.309A30.135,30.135,0,0,0,116.507,140.374Z" transform="translate(-95.764 -107.455)" fill="#92e3a9" stroke="#000" stroke-linecap="round" stroke-linejoin="round" stroke-width="0.3"/>
      <path id="Path_553" data-name="Path 553" d="M236.6,77.912l5.988,11.3s1.192.4,1.192.695-.546,5.568-1.591,5.667a3.288,3.288,0,0,1-2.536-1.094c-.1-.349-.3-1.592-.3-1.592l-3.678-4.573L236.6,77.91Z" transform="translate(-189.544 -60.159)" fill="#92e3a9" stroke="#000" stroke-linecap="round" stroke-linejoin="round" stroke-width="0.3"/>
      <path id="Path_554" data-name="Path 554" d="M262.757,130.2a8.911,8.911,0,0,0-2.224,1.979c-.323.72-.323,3.1.071,3.527a2.558,2.558,0,0,0,2.016.612,3.986,3.986,0,0,0,1.475-1.3c.179-.36.071-4.463-.323-4.678a2.029,2.029,0,0,0-1.014-.142Z" transform="translate(-208.517 -100.448)" fill="#92e3a9" stroke="#000" stroke-linecap="round" stroke-linejoin="round" stroke-width="0.3"/>
      <path id="Path_555" data-name="Path 555" d="M341.3,97.731a7.415,7.415,0,0,1,1.218-1c.427-.213.67-.488.427-.64s-1.126.3-1.126.3Z" transform="translate(-270.943 -74.144)" fill="#c9c9c9" stroke="#000" stroke-linecap="round" stroke-linejoin="round" stroke-width="0.3"/>
      <path id="Path_556" data-name="Path 556" d="M272.022,96.487a4.705,4.705,0,0,0-.865,1.477c-.539,1.908.468,3.13.828,3.167s8.923-6.774,8.923-6.774,4.646-2.043,4.9-2.259,2.52-3.924,2.52-3.924.468-2.016-.037-1.908-.828.4-1.225,1.117a17.531,17.531,0,0,1-1.835,2.124,9.8,9.8,0,0,1-1.259,1.043,23.464,23.464,0,0,0-3.213,1.126,7.564,7.564,0,0,0-.89,1.358l-7.847,3.456Z" transform="translate(-216.766 -66.596)" fill="#c9c9c9" stroke="#000" stroke-linecap="round" stroke-linejoin="round" stroke-width="0.3"/>
      <path id="Path_557" data-name="Path 557" d="M329.614,94.134s.372-.186.319.186a7.768,7.768,0,0,1-1.117,1.649c-.133.186-1.463,1.7-1.541,1.807a1.493,1.493,0,0,1-.5.213" transform="translate(-259.745 -72.627)" fill="none" stroke="#000" stroke-linecap="round" stroke-linejoin="round" stroke-width="0.3"/>
      <path id="Path_558" data-name="Path 558" d="M336.553,88.01s.532-.08.5.346a19.2,19.2,0,0,1-1.516,2.818l-1.011,1.383" transform="translate(-265.725 -67.938)" fill="none" stroke="#000" stroke-linecap="round" stroke-linejoin="round" stroke-width="0.3"/>
      <path id="Path_559" data-name="Path 559" d="M339.933,90.7s-1.729,3.165-2.153,3.775" transform="translate(-268.23 -70.016)" fill="none" stroke="#000" stroke-linecap="round" stroke-linejoin="round" stroke-width="0.3"/>
      <path id="Path_560" data-name="Path 560" d="M254.261,128.89a4.925,4.925,0,0,0-2.041,1.649" transform="translate(-202.291 -99.448)" fill="none" stroke="#000" stroke-linecap="round" stroke-linejoin="round" stroke-width="0.3"/>
      <path id="Path_561" data-name="Path 561" d="M263.409,127.6s-.131.034-.339.112" transform="translate(-210.653 -98.454)" fill="none" stroke="#000" stroke-linecap="round" stroke-linejoin="round" stroke-width="0.3"/>
      <path id="Path_562" data-name="Path 562" d="M249.57,130.561a8.218,8.218,0,0,1,1.215-1.761" transform="translate(-200.249 -99.379)" fill="none" stroke="#000" stroke-linecap="round" stroke-linejoin="round" stroke-width="0.3"/>
      <path id="Path_563" data-name="Path 563" d="M248,117.1a4.334,4.334,0,0,1,.846-.1" transform="translate(-199.039 -90.285)" fill="none" stroke="#000" stroke-linecap="round" stroke-linejoin="round" stroke-width="0.3"/>
      <path id="Path_564" data-name="Path 564" d="M236.72,119.725a7.8,7.8,0,0,1,1.585-.885" transform="translate(-190.345 -91.703)" fill="none" stroke="#000" stroke-linecap="round" stroke-linejoin="round" stroke-width="0.3"/>
    </g>
    <g id="Plant" transform="translate(66.859 35.59)">
      <path id="Path_565" data-name="Path 565" d="M343.156,161.75s0-1.316-1.841-3.155-3.025-2.894-3.025-2.894-.92,3.025.789,4.866a32.345,32.345,0,0,0,4.077,3.55Z" transform="translate(-327.38 -155.7)" fill="#92e3a9"/>
      <path id="Path_566" data-name="Path 566" d="M331.5,197.57s0-1.316-1.841-3.156-3.025-2.894-3.025-2.894-.92,3.025.789,4.866a32.468,32.468,0,0,0,4.077,3.552v-2.367Z" transform="translate(-318.394 -183.306)" fill="#92e3a9"/>
      <path id="Path_567" data-name="Path 567" d="M358.99,173.361s.14-1.307,2.165-2.944,3.314-2.557,3.314-2.557.6,3.105-1.3,4.756a32.219,32.219,0,0,1-4.43,3.1Z" transform="translate(-343.332 -165.071)" fill="#92e3a9"/>
      <path id="Path_568" data-name="Path 568" d="M344.085,217.7s.275-1.286,2.463-2.7,3.564-2.195,3.564-2.195.266,3.151-1.791,4.593a32.338,32.338,0,0,1-4.731,2.619l.5-2.314Z" transform="translate(-331.656 -199.706)" fill="#92e3a9"/>
      <path id="Path_569" data-name="Path 569" d="M348.4,259.94s0-1.316,1.841-3.156,3.025-2.894,3.025-2.894.92,3.025-.789,4.866a32.466,32.466,0,0,1-4.077,3.552v-2.367Z" transform="translate(-335.363 -231.373)" fill="#92e3a9"/>
      <path id="Path_570" data-name="Path 570" d="M333.058,269.07s.188-1.3-1.374-3.387-2.582-3.293-2.582-3.293-1.342,2.864.089,4.928a32.254,32.254,0,0,0,3.532,4.093l.337-2.344Z" transform="translate(-320.051 -237.924)" fill="#92e3a9"/>
      <path id="Path_571" data-name="Path 571" d="M340.35,304.559s0-1.316,1.841-3.155,3.025-2.894,3.025-2.894.92,3.025-.789,4.866a32.466,32.466,0,0,1-4.077,3.552v-2.367Z" transform="translate(-329.159 -265.761)" fill="#92e3a9"/>
      <path id="Path_572" data-name="Path 572" d="M345.584,331.316s-.333-1.273.982-3.52,2.195-3.566,2.195-3.566,1.656,2.692.47,4.907a32.249,32.249,0,0,1-3.045,4.467l-.6-2.291Z" transform="translate(-333.164 -285.582)" fill="#92e3a9"/>
      <path id="Path_573" data-name="Path 573" d="M344.809,180.61a37.707,37.707,0,0,1-.5,4.084c-.727,3.761-2.548,6.187-3.275,9.583s1.362,7.772.8,12.136-2.259,6.788-1.773,9.7,3.032,10.8,3.032,10.8" transform="translate(-328.869 -174.898)" fill="none" stroke="#12c271" stroke-linecap="round" stroke-linejoin="round" stroke-width="0.3"/>
      <line id="Line_92" data-name="Line 92" y1="1.523" x2="1.986" transform="translate(15.64 7.641)" fill="none" stroke="#12c271" stroke-linecap="round" stroke-linejoin="round" stroke-width="0.3"/>
      <line id="Line_93" data-name="Line 93" x1="0.832" y1="1.477" transform="translate(14.901 5.933)" fill="none" stroke="#12c271" stroke-linecap="round" stroke-linejoin="round" stroke-width="0.3"/>
      <path id="Path_574" data-name="Path 574" d="M345.06,231.153s1.66-1.245,3.369-2.493" transform="translate(-332.789 -211.929)" fill="none" stroke="#12c271" stroke-linecap="round" stroke-linejoin="round" stroke-width="0.3"/>
      <path id="Path_575" data-name="Path 575" d="M338.754,213.053a26.552,26.552,0,0,0-2.954-4.513" transform="translate(-325.652 -196.423)" fill="none" stroke="#12c271" stroke-linecap="round" stroke-linejoin="round" stroke-width="0.3"/>
      <path id="Path_576" data-name="Path 576" d="M348.69,272.454a20.533,20.533,0,0,1,3.552-4.754" transform="translate(-335.586 -242.016)" fill="none" stroke="#12c271" stroke-linecap="round" stroke-linejoin="round" stroke-width="0.3"/>
      <path id="Path_577" data-name="Path 577" d="M337.508,279.579a23.189,23.189,0,0,0-1.8-3.415c-.97-1.431-1.108-1.614-1.108-1.614" transform="translate(-324.728 -247.295)" fill="none" stroke="#12c271" stroke-linecap="round" stroke-linejoin="round" stroke-width="0.3"/>
      <path id="Path_578" data-name="Path 578" d="M340.35,316.733a22.01,22.01,0,0,1,1.5-3.025,19.283,19.283,0,0,1,1.938-2.539" transform="translate(-329.159 -275.517)" fill="none" stroke="#12c271" stroke-linecap="round" stroke-linejoin="round" stroke-width="0.3"/>
      <path id="Path_579" data-name="Path 579" d="M348.245,342.616a5.628,5.628,0,0,1,.5-2.912c.693-1.339,1.477-3.091,1.8-3.784" transform="translate(-335.224 -294.592)" fill="none" stroke="#12c271" stroke-linecap="round" stroke-linejoin="round" stroke-width="0.3"/>
      <path id="Path_580" data-name="Path 580" d="M307.735,244.18a3.269,3.269,0,0,1,.812-2.179c.954-1.355,1.582-2.142,1.582-2.142a3.53,3.53,0,0,1,.034,3.137,20.56,20.56,0,0,1-2.172,2.669l-.257-1.484Z" transform="translate(-304.017 -220.56)" fill="#92e3a9"/>
      <path id="Path_581" data-name="Path 581" d="M318.925,265.37a3.269,3.269,0,0,1,.812-2.179c.954-1.355,1.582-2.142,1.582-2.142a3.53,3.53,0,0,1,.034,3.137,20.563,20.563,0,0,1-2.172,2.669l-.257-1.484Z" transform="translate(-312.641 -236.891)" fill="#92e3a9"/>
      <path id="Path_582" data-name="Path 582" d="M295.581,255.167s-.229-.8-1.676-1.612-2.355-1.245-2.355-1.245a3.53,3.53,0,0,0,1.33,2.841,20.443,20.443,0,0,0,3.114,1.463l-.413-1.449Z" transform="translate(-291.55 -230.155)" fill="#92e3a9"/>
      <path id="Path_583" data-name="Path 583" d="M308.061,281.647s-.312-.777-1.837-1.426-2.474-.991-2.474-.991a3.526,3.526,0,0,0,1.621,2.685,20.589,20.589,0,0,0,3.252,1.128l-.562-1.4Z" transform="translate(-300.952 -250.902)" fill="#92e3a9"/>
      <path id="Path_584" data-name="Path 584" d="M313.371,308s-.142-.826-1.5-1.78-2.211-1.486-2.211-1.486a3.523,3.523,0,0,0,1.023,2.965,20.517,20.517,0,0,0,2.942,1.784Z" transform="translate(-305.494 -270.554)" fill="#92e3a9"/>
      <path id="Path_585" data-name="Path 585" d="M327.065,310.5a3.265,3.265,0,0,1,.493-2.273c.752-1.477,1.261-2.346,1.261-2.346a3.532,3.532,0,0,1,.479,3.1,20.409,20.409,0,0,1-1.77,2.951l-.465-1.433Z" transform="translate(-318.887 -271.44)" fill="#92e3a9"/>
      <path id="Path_586" data-name="Path 586" d="M336.712,343.362s.1-.832,1.394-1.862,2.124-1.61,2.124-1.61a3.529,3.529,0,0,1-.853,3.02,20.5,20.5,0,0,1-2.837,1.949Z" transform="translate(-326.223 -297.651)" fill="#92e3a9"/>
      <path id="Path_587" data-name="Path 587" d="M323.261,335.106s-.142-.826-1.5-1.78-2.211-1.486-2.211-1.486a3.523,3.523,0,0,0,1.023,2.965,20.517,20.517,0,0,0,2.942,1.784Z" transform="translate(-313.116 -291.447)" fill="#92e3a9"/>
      <path id="Path_588" data-name="Path 588" d="M325.529,351.858a3.264,3.264,0,0,0-1-2.1c-1.069-1.266-1.763-2-1.763-2a3.524,3.524,0,0,0,.238,3.128,20.778,20.778,0,0,0,2.394,2.472Z" transform="translate(-315.4 -303.717)" fill="#92e3a9"/>
      <path id="Path_589" data-name="Path 589" d="M307.14,257.85a24.411,24.411,0,0,0,.759,2.506c.865,2.279,2.268,3.6,3.094,5.655s-.009,5.022.814,7.7,2.153,4.013,2.165,5.891-.729,7.1-.729,7.1" transform="translate(-303.565 -234.425)" fill="none" stroke="#12c271" stroke-linecap="round" stroke-linejoin="round" stroke-width="0.3"/>
      <line id="Line_94" data-name="Line 94" x1="1.41" y1="0.738" transform="translate(2.729 24.819)" fill="none" stroke="#12c271" stroke-linecap="round" stroke-linejoin="round" stroke-width="0.3"/>
      <line id="Line_95" data-name="Line 95" y1="1.016" x2="0.36" transform="translate(3.892 23.453)" fill="none" stroke="#12c271" stroke-linecap="round" stroke-linejoin="round" stroke-width="0.3"/>
      <path id="Path_590" data-name="Path 590" d="M315.563,289.037s-1.176-.6-2.383-1.2" transform="translate(-308.22 -257.537)" fill="none" stroke="#12c271" stroke-linecap="round" stroke-linejoin="round" stroke-width="0.3"/>
      <path id="Path_591" data-name="Path 591" d="M320.07,275.781a16.808,16.808,0,0,1,1.362-3.151" transform="translate(-313.53 -245.815)" fill="none" stroke="#12c271" stroke-linecap="round" stroke-linejoin="round" stroke-width="0.3"/>
      <path id="Path_592" data-name="Path 592" d="M317.385,315.4a13.052,13.052,0,0,0-2.745-2.6" transform="translate(-309.345 -276.774)" fill="none" stroke="#12c271" stroke-linecap="round" stroke-linejoin="round" stroke-width="0.3"/>
      <path id="Path_593" data-name="Path 593" d="M328.37,317.36a14.8,14.8,0,0,1,.757-2.337c.452-1,.518-1.133.518-1.133" transform="translate(-319.926 -277.614)" fill="none" stroke="#12c271" stroke-linecap="round" stroke-linejoin="round" stroke-width="0.3"/>
      <path id="Path_594" data-name="Path 594" d="M336.66,350.738a12.294,12.294,0,0,1,1.516-1.573,8.01,8.01,0,0,0,.984-.855" transform="translate(-326.315 -304.14)" fill="none" stroke="#12c271" stroke-linecap="round" stroke-linejoin="round" stroke-width="0.3"/>
      <path id="Path_595" data-name="Path 595" d="M327.676,342.217a14.172,14.172,0,0,0-1.266-1.736,12.125,12.125,0,0,0-1.491-1.381" transform="translate(-317.267 -297.042)" fill="none" stroke="#12c271" stroke-linecap="round" stroke-linejoin="round" stroke-width="0.3"/>
      <path id="Path_596" data-name="Path 596" d="M327.877,358.9a3.576,3.576,0,0,0-.628-1.773c-.58-.764-1.261-1.779-1.539-2.179" transform="translate(-317.876 -309.258)" fill="none" stroke="#12c271" stroke-linecap="round" stroke-linejoin="round" stroke-width="0.3"/>
      <path id="Path_597" data-name="Path 597" d="M327.574,389.584h-8.386a.624.624,0,0,1-.624-.624l-1.2-9.281H329.4l-1.2,9.281a.624.624,0,0,1-.624.624Z" transform="translate(-311.441 -328.317)" fill="#7a8499"/>
    </g>
  </g>
</svg>
